<mxfile host="65bd71144e" scale="4" border="0">
    <diagram id="H07xOtTbsN5M4d4i7lYX" name="Page-1">
        <mxGraphModel dx="250" dy="357" grid="1" gridSize="10" guides="1" tooltips="1" connect="1" arrows="1" fold="1" page="1" pageScale="1" pageWidth="827" pageHeight="1169" math="0" shadow="0">
            <root>
                <mxCell id="0"/>
                <mxCell id="1" parent="0"/>
                <mxCell id="2" value="" style="ellipse;whiteSpace=wrap;html=1;aspect=fixed;fillColor=none;" vertex="1" parent="1">
                    <mxGeometry x="280" y="200" width="360" height="360" as="geometry"/>
                </mxCell>
                <mxCell id="3" value="" style="endArrow=none;html=1;exitX=0.027;exitY=0.673;exitDx=0;exitDy=0;exitPerimeter=0;entryX=0.5;entryY=0;entryDx=0;entryDy=0;startSize=6;" edge="1" parent="1" source="2" target="2">
                    <mxGeometry width="50" height="50" relative="1" as="geometry">
                        <mxPoint x="470" y="410" as="sourcePoint"/>
                        <mxPoint x="520" y="360" as="targetPoint"/>
                    </mxGeometry>
                </mxCell>
                <mxCell id="4" value="" style="endArrow=none;html=1;startSize=6;" edge="1" parent="1">
                    <mxGeometry width="50" height="50" relative="1" as="geometry">
                        <mxPoint x="290" y="440" as="sourcePoint"/>
                        <mxPoint x="160" y="340" as="targetPoint"/>
                    </mxGeometry>
                </mxCell>
                <mxCell id="5" value="" style="endArrow=none;html=1;startSize=6;" edge="1" parent="1">
                    <mxGeometry width="50" height="50" relative="1" as="geometry">
                        <mxPoint x="460" y="200" as="sourcePoint"/>
                        <mxPoint x="330" y="100" as="targetPoint"/>
                    </mxGeometry>
                </mxCell>
                <mxCell id="6" value="" style="endArrow=none;html=1;startSize=6;" edge="1" parent="1">
                    <mxGeometry width="50" height="50" relative="1" as="geometry">
                        <mxPoint x="120" y="390" as="sourcePoint"/>
                        <mxPoint x="510" y="128.35443037974687" as="targetPoint"/>
                    </mxGeometry>
                </mxCell>
                <mxCell id="8" value="" style="shape=ellipse;fillColor=#FFFFFF;strokeColor=none;html=1;sketch=0;" vertex="1" parent="1">
                    <mxGeometry x="359" y="226" width="6" height="6" as="geometry"/>
                </mxCell>
                <mxCell id="9" value="" style="shape=ellipse;fillColor=#FFFFFF;strokeColor=none;html=1;sketch=0;" vertex="1" parent="1">
                    <mxGeometry x="431" y="177" width="6" height="6" as="geometry"/>
                </mxCell>
                <mxCell id="10" value="" style="shape=ellipse;fillColor=#FFFFFF;strokeColor=none;html=1;sketch=0;" vertex="1" parent="1">
                    <mxGeometry x="457" y="197" width="6" height="6" as="geometry"/>
                </mxCell>
                <mxCell id="11" value="" style="shape=ellipse;fillColor=#FFFFFF;strokeColor=none;html=1;sketch=0;" vertex="1" parent="1">
                    <mxGeometry x="173" y="350" width="6" height="6" as="geometry"/>
                </mxCell>
                <mxCell id="12" value="" style="shape=ellipse;fillColor=#FFFFFF;strokeColor=none;html=1;sketch=0;" vertex="1" parent="1">
                    <mxGeometry x="287" y="437" width="6" height="6" as="geometry"/>
                </mxCell>
                <mxCell id="13" value="" style="shape=ellipse;fillColor=#FFFFFF;strokeColor=none;html=1;sketch=0;" vertex="1" parent="1">
                    <mxGeometry x="457" y="377" width="6" height="6" as="geometry"/>
                </mxCell>
                <mxCell id="14" value="" style="endArrow=none;html=1;startSize=6;entryX=0;entryY=0;entryDx=0;entryDy=0;exitX=1;exitY=1;exitDx=0;exitDy=0;" edge="1" parent="1" source="13" target="8">
                    <mxGeometry width="50" height="50" relative="1" as="geometry">
                        <mxPoint x="330" y="350" as="sourcePoint"/>
                        <mxPoint x="380" y="300" as="targetPoint"/>
                    </mxGeometry>
                </mxCell>
                <mxCell id="15" value="" style="shape=ellipse;fillColor=#FFFFFF;strokeColor=none;html=1;sketch=0;" vertex="1" parent="1">
                    <mxGeometry x="396" y="284" width="6" height="6" as="geometry"/>
                </mxCell>
                <mxCell id="16" value="O" style="text;html=1;strokeColor=none;fillColor=none;align=center;verticalAlign=middle;whiteSpace=wrap;rounded=0;" vertex="1" parent="1">
                    <mxGeometry x="450" y="365" width="60" height="30" as="geometry"/>
                </mxCell>
                <mxCell id="17" value="A" style="text;html=1;strokeColor=none;fillColor=none;align=center;verticalAlign=middle;whiteSpace=wrap;rounded=0;" vertex="1" parent="1">
                    <mxGeometry x="437" y="197" width="60" height="30" as="geometry"/>
                </mxCell>
                <mxCell id="18" value="B" style="text;html=1;strokeColor=none;fillColor=none;align=center;verticalAlign=middle;whiteSpace=wrap;rounded=0;" vertex="1" parent="1">
                    <mxGeometry x="280" y="430" width="60" height="30" as="geometry"/>
                </mxCell>
                <mxCell id="19" value="――" style="text;html=1;strokeColor=none;fillColor=none;align=center;verticalAlign=middle;whiteSpace=wrap;rounded=0;" vertex="1" parent="1">
                    <mxGeometry x="390" y="272" width="60" height="30" as="geometry"/>
                </mxCell>
                <mxCell id="20" value="C" style="text;html=1;strokeColor=none;fillColor=none;align=center;verticalAlign=middle;whiteSpace=wrap;rounded=0;" vertex="1" parent="1">
                    <mxGeometry x="320" y="203" width="60" height="30" as="geometry"/>
                </mxCell>
                <mxCell id="21" value="E" style="text;html=1;strokeColor=none;fillColor=none;align=center;verticalAlign=middle;whiteSpace=wrap;rounded=0;" vertex="1" parent="1">
                    <mxGeometry x="384" y="165" width="60" height="30" as="geometry"/>
                </mxCell>
                <mxCell id="22" value="F" style="text;html=1;strokeColor=none;fillColor=none;align=center;verticalAlign=middle;whiteSpace=wrap;rounded=0;" vertex="1" parent="1">
                    <mxGeometry x="146" y="320" width="60" height="30" as="geometry"/>
                </mxCell>
            </root>
        </mxGraphModel>
    </diagram>
</mxfile>